<svg xmlns="http://www.w3.org/2000/svg" width="512" height="512" viewBox="0 0 160 160">
  <path fill="#de3a11" d="M-5-5h170v170H-5z"/>
  <path fill="#841003" d="M79.3 114.5c0 4.1-1.8 6.9-7 6.9-4.8 0-7.8-1.4-7.8-7V87.6c0-2.7 0-10.7-7.5-10.7-5.6 0-9.7 4.6-9.7 11.1v26.6c0 2.8-.7 6.9-7.1 6.9-4.7 0-7.6-1.4-7.6-7V52.3c0-2.8.6-6.9 7-6.9 4.6 0 7.7 1.4 7.7 7v18.5A20 20 0 0162 64.3c9.2 0 17.4 5.4 17.4 20.1zM93.4 56.9c-1.5 0-6.1 0-6.1-5.7 0-4.3 1.7-6.3 6.1-6.3H122c6.4 0 10.2 2.2 10.2 10.2V65c0 8.1-3.9 10.2-10.2 10.2h-17.8c-1.5 0-1.9.5-2 1.2l-.7 4.3c0 1.4 1.2 1.4 2 1.4h17.7c5 0 11.3.3 11.3 9.8 0 .1-.4 18.8-4.4 25-3.3 5-8.5 5-17 5-2.5 0-10.8.2-13-.3-3-.5-4.2-4-4.2-6.4 0-6.2 5.2-6.2 7.1-6.2l11.7.2c2.4 0 4.6-.2 5.6-3.3a47.7 47.7 0 001.3-9.4c0-1.3-.4-2.1-2.1-2.1H98c-2.9 0-10.2 0-10.2-7 0-.5 2.1-16.7 2.7-18.3 1.5-5.2 7.3-5.2 9.9-5.2h17a1.9 1.9 0 002-2v-3a2 2 0 00-2-2z"/>
  <path fill="#fff" d="M76.3 109.5c0 4.1-1.8 6.9-7 6.9-4.8 0-7.8-1.4-7.8-7V82.6c0-2.7 0-10.7-7.5-10.7-5.6 0-9.7 4.6-9.7 11.1v26.6c0 2.8-.7 6.9-7.1 6.9-4.7 0-7.6-1.4-7.6-7V47.3c0-2.8.6-6.9 7-6.9 4.6 0 7.7 1.4 7.7 7v18.5A20 20 0 0159 59.4c9.2 0 17.4 5.4 17.4 20zM90.4 51.9c-1.5 0-6.1 0-6.1-5.7 0-4.3 1.7-6.3 6.1-6.3H119c6.4 0 10.2 2.2 10.2 10.2V60c0 8.1-3.9 10.2-10.2 10.2h-17.8c-1.5 0-1.9.5-2 1.2l-.7 4.3c0 1.4 1.2 1.4 2 1.4h17.7c5 0 11.3.3 11.3 9.8 0 .1-.4 18.8-4.4 25-3.3 5-8.5 5-17 5-2.5 0-10.8.2-13-.3-3-.5-4.2-4-4.2-6.4 0-6.2 5.2-6.2 7.1-6.2l11.7.2c2.4 0 4.6-.2 5.6-3.3a47.7 47.7 0 001.3-9.4c0-1.3-.4-2.1-2.1-2.1H95c-2.9 0-10.2 0-10.2-7 0-.5 2.1-16.7 2.7-18.3 1.5-5.2 7.3-5.2 9.9-5.2h17a1.9 1.9 0 002-2v-3a2 2 0 00-2-2z"/>
</svg>
